<mxfile host="app.diagrams.net" modified="2023-04-08T18:40:49.549Z" agent="Mozilla/5.0 (Windows NT 10.0; Win64; x64) AppleWebKit/537.36 (KHTML, like Gecko) Chrome/110.0.0.0 YaBrowser/23.3.0.2246 Yowser/2.5 Safari/537.36" etag="RNHksDDScJDPlVEQzLA_" version="21.1.5" type="device">
  <diagram name="Страница 1" id="LZ8zv0jgnWAgyM7vqCzd">
    <mxGraphModel dx="2022" dy="1828" grid="1" gridSize="10" guides="1" tooltips="1" connect="1" arrows="1" fold="1" page="1" pageScale="1" pageWidth="827" pageHeight="1169" math="0" shadow="0">
      <root>
        <mxCell id="0" />
        <mxCell id="1" parent="0" />
        <mxCell id="Gm08zl15T1QvJcRxXQye-4" value="содержание" style="rhombus;whiteSpace=wrap;html=1;" vertex="1" parent="1">
          <mxGeometry x="240" y="210" width="80" height="60" as="geometry" />
        </mxCell>
        <mxCell id="Gm08zl15T1QvJcRxXQye-7" value="" style="endArrow=none;html=1;rounded=0;exitX=1;exitY=0.5;exitDx=0;exitDy=0;entryX=0;entryY=0.5;entryDx=0;entryDy=0;" edge="1" parent="1" target="Gm08zl15T1QvJcRxXQye-4">
          <mxGeometry width="50" height="50" relative="1" as="geometry">
            <mxPoint x="200" y="240" as="sourcePoint" />
            <mxPoint x="340" y="350" as="targetPoint" />
          </mxGeometry>
        </mxCell>
        <mxCell id="Gm08zl15T1QvJcRxXQye-8" value="" style="endArrow=none;html=1;rounded=0;exitX=1;exitY=0.5;exitDx=0;exitDy=0;entryX=0;entryY=0.5;entryDx=0;entryDy=0;" edge="1" parent="1" source="Gm08zl15T1QvJcRxXQye-4">
          <mxGeometry width="50" height="50" relative="1" as="geometry">
            <mxPoint x="260" y="390" as="sourcePoint" />
            <mxPoint x="360" y="240" as="targetPoint" />
          </mxGeometry>
        </mxCell>
        <mxCell id="Gm08zl15T1QvJcRxXQye-9" value="1" style="text;html=1;align=center;verticalAlign=middle;resizable=0;points=[];autosize=1;strokeColor=none;fillColor=none;" vertex="1" parent="1">
          <mxGeometry x="200" y="210" width="30" height="30" as="geometry" />
        </mxCell>
        <mxCell id="Gm08zl15T1QvJcRxXQye-10" value="n" style="text;html=1;align=center;verticalAlign=middle;resizable=0;points=[];autosize=1;strokeColor=none;fillColor=none;" vertex="1" parent="1">
          <mxGeometry x="330" y="210" width="30" height="30" as="geometry" />
        </mxCell>
        <mxCell id="Gm08zl15T1QvJcRxXQye-14" value="содержание" style="rhombus;whiteSpace=wrap;html=1;" vertex="1" parent="1">
          <mxGeometry x="100" y="300" width="80" height="60" as="geometry" />
        </mxCell>
        <mxCell id="Gm08zl15T1QvJcRxXQye-15" value="" style="endArrow=none;html=1;rounded=0;exitX=0.5;exitY=0;exitDx=0;exitDy=0;entryX=0.5;entryY=1;entryDx=0;entryDy=0;" edge="1" parent="1" target="Gm08zl15T1QvJcRxXQye-14">
          <mxGeometry width="50" height="50" relative="1" as="geometry">
            <mxPoint x="140" y="400" as="sourcePoint" />
            <mxPoint x="220" y="490" as="targetPoint" />
          </mxGeometry>
        </mxCell>
        <mxCell id="Gm08zl15T1QvJcRxXQye-16" value="" style="endArrow=none;html=1;rounded=0;exitX=0.5;exitY=0;exitDx=0;exitDy=0;entryX=0.5;entryY=1.033;entryDx=0;entryDy=0;entryPerimeter=0;" edge="1" parent="1" source="Gm08zl15T1QvJcRxXQye-14" target="Gm08zl15T1QvJcRxXQye-58">
          <mxGeometry width="50" height="50" relative="1" as="geometry">
            <mxPoint x="270" y="440" as="sourcePoint" />
            <mxPoint x="140" y="260" as="targetPoint" />
          </mxGeometry>
        </mxCell>
        <mxCell id="Gm08zl15T1QvJcRxXQye-17" value="n" style="text;html=1;align=center;verticalAlign=middle;resizable=0;points=[];autosize=1;strokeColor=none;fillColor=none;" vertex="1" parent="1">
          <mxGeometry x="145" y="360" width="30" height="30" as="geometry" />
        </mxCell>
        <mxCell id="Gm08zl15T1QvJcRxXQye-18" value="n" style="text;html=1;align=center;verticalAlign=middle;resizable=0;points=[];autosize=1;strokeColor=none;fillColor=none;" vertex="1" parent="1">
          <mxGeometry x="146" y="260" width="30" height="30" as="geometry" />
        </mxCell>
        <mxCell id="Gm08zl15T1QvJcRxXQye-23" value="содержание" style="rhombus;whiteSpace=wrap;html=1;" vertex="1" parent="1">
          <mxGeometry x="100" y="120" width="80" height="60" as="geometry" />
        </mxCell>
        <mxCell id="Gm08zl15T1QvJcRxXQye-24" value="" style="endArrow=none;html=1;rounded=0;exitX=0.5;exitY=0;exitDx=0;exitDy=0;entryX=0.5;entryY=1;entryDx=0;entryDy=0;" edge="1" parent="1" source="Gm08zl15T1QvJcRxXQye-57" target="Gm08zl15T1QvJcRxXQye-23">
          <mxGeometry width="50" height="50" relative="1" as="geometry">
            <mxPoint x="140" y="220" as="sourcePoint" />
            <mxPoint x="320" y="330" as="targetPoint" />
          </mxGeometry>
        </mxCell>
        <mxCell id="Gm08zl15T1QvJcRxXQye-25" value="" style="endArrow=none;html=1;rounded=0;exitX=0.5;exitY=0;exitDx=0;exitDy=0;entryX=0.5;entryY=0.967;entryDx=0;entryDy=0;entryPerimeter=0;" edge="1" parent="1" source="Gm08zl15T1QvJcRxXQye-23" target="Gm08zl15T1QvJcRxXQye-56">
          <mxGeometry width="50" height="50" relative="1" as="geometry">
            <mxPoint x="270" y="160" as="sourcePoint" />
            <mxPoint x="140" y="80" as="targetPoint" />
          </mxGeometry>
        </mxCell>
        <mxCell id="Gm08zl15T1QvJcRxXQye-26" value="n" style="text;html=1;align=center;verticalAlign=middle;resizable=0;points=[];autosize=1;strokeColor=none;fillColor=none;" vertex="1" parent="1">
          <mxGeometry x="146" y="190" width="30" height="30" as="geometry" />
        </mxCell>
        <mxCell id="Gm08zl15T1QvJcRxXQye-27" value="n" style="text;html=1;align=center;verticalAlign=middle;resizable=0;points=[];autosize=1;strokeColor=none;fillColor=none;" vertex="1" parent="1">
          <mxGeometry x="138" y="80" width="30" height="30" as="geometry" />
        </mxCell>
        <mxCell id="Gm08zl15T1QvJcRxXQye-31" value="создание" style="rhombus;whiteSpace=wrap;html=1;" vertex="1" parent="1">
          <mxGeometry x="240" y="430" width="80" height="60" as="geometry" />
        </mxCell>
        <mxCell id="Gm08zl15T1QvJcRxXQye-32" value="" style="endArrow=none;html=1;rounded=0;exitX=0.993;exitY=0.033;exitDx=0;exitDy=0;entryX=0;entryY=0.5;entryDx=0;entryDy=0;exitPerimeter=0;" edge="1" parent="1" source="Gm08zl15T1QvJcRxXQye-112" target="Gm08zl15T1QvJcRxXQye-31">
          <mxGeometry width="50" height="50" relative="1" as="geometry">
            <mxPoint x="200" y="420" as="sourcePoint" />
            <mxPoint x="260" y="470" as="targetPoint" />
          </mxGeometry>
        </mxCell>
        <mxCell id="Gm08zl15T1QvJcRxXQye-33" value="" style="endArrow=none;html=1;rounded=0;exitX=1;exitY=0.5;exitDx=0;exitDy=0;entryX=0;entryY=0.5;entryDx=0;entryDy=0;" edge="1" parent="1" source="Gm08zl15T1QvJcRxXQye-31" target="Gm08zl15T1QvJcRxXQye-118">
          <mxGeometry width="50" height="50" relative="1" as="geometry">
            <mxPoint x="280" y="610" as="sourcePoint" />
            <mxPoint x="380" y="460" as="targetPoint" />
          </mxGeometry>
        </mxCell>
        <mxCell id="Gm08zl15T1QvJcRxXQye-34" value="n" style="text;html=1;align=center;verticalAlign=middle;resizable=0;points=[];autosize=1;strokeColor=none;fillColor=none;" vertex="1" parent="1">
          <mxGeometry x="206" y="431" width="30" height="30" as="geometry" />
        </mxCell>
        <mxCell id="Gm08zl15T1QvJcRxXQye-35" value="1" style="text;html=1;align=center;verticalAlign=middle;resizable=0;points=[];autosize=1;strokeColor=none;fillColor=none;" vertex="1" parent="1">
          <mxGeometry x="360" y="430" width="30" height="30" as="geometry" />
        </mxCell>
        <mxCell id="Gm08zl15T1QvJcRxXQye-44" value="содержание" style="rhombus;whiteSpace=wrap;html=1;" vertex="1" parent="1">
          <mxGeometry x="600" y="130" width="80" height="60" as="geometry" />
        </mxCell>
        <mxCell id="Gm08zl15T1QvJcRxXQye-49" value="принад-ть" style="rhombus;whiteSpace=wrap;html=1;" vertex="1" parent="1">
          <mxGeometry x="600" y="290" width="80" height="60" as="geometry" />
        </mxCell>
        <mxCell id="Gm08zl15T1QvJcRxXQye-53" value="КОМПЕТЕНЦИЯ" style="swimlane;fontStyle=0;childLayout=stackLayout;horizontal=1;startSize=30;horizontalStack=0;resizeParent=1;resizeParentMax=0;resizeLast=0;collapsible=1;marginBottom=0;whiteSpace=wrap;html=1;" vertex="1" parent="1">
          <mxGeometry x="70" y="-40" width="140" height="120" as="geometry">
            <mxRectangle x="75" y="-40" width="130" height="30" as="alternateBounds" />
          </mxGeometry>
        </mxCell>
        <mxCell id="Gm08zl15T1QvJcRxXQye-54" value="КОД" style="text;strokeColor=none;fillColor=none;align=left;verticalAlign=middle;spacingLeft=4;spacingRight=4;overflow=hidden;points=[[0,0.5],[1,0.5]];portConstraint=eastwest;rotatable=0;whiteSpace=wrap;html=1;" vertex="1" parent="Gm08zl15T1QvJcRxXQye-53">
          <mxGeometry y="30" width="140" height="30" as="geometry" />
        </mxCell>
        <mxCell id="Gm08zl15T1QvJcRxXQye-55" value="НАЗВАНИЕ" style="text;strokeColor=none;fillColor=none;align=left;verticalAlign=middle;spacingLeft=4;spacingRight=4;overflow=hidden;points=[[0,0.5],[1,0.5]];portConstraint=eastwest;rotatable=0;whiteSpace=wrap;html=1;" vertex="1" parent="Gm08zl15T1QvJcRxXQye-53">
          <mxGeometry y="60" width="140" height="30" as="geometry" />
        </mxCell>
        <mxCell id="Gm08zl15T1QvJcRxXQye-56" value="ОПИСАНИЕ" style="text;strokeColor=none;fillColor=none;align=left;verticalAlign=middle;spacingLeft=4;spacingRight=4;overflow=hidden;points=[[0,0.5],[1,0.5]];portConstraint=eastwest;rotatable=0;whiteSpace=wrap;html=1;" vertex="1" parent="Gm08zl15T1QvJcRxXQye-53">
          <mxGeometry y="90" width="140" height="30" as="geometry" />
        </mxCell>
        <mxCell id="Gm08zl15T1QvJcRxXQye-57" value="ТЕМА" style="swimlane;fontStyle=0;childLayout=stackLayout;horizontal=1;startSize=30;horizontalStack=0;resizeParent=1;resizeParentMax=0;resizeLast=0;collapsible=1;marginBottom=0;whiteSpace=wrap;html=1;" vertex="1" parent="1">
          <mxGeometry x="70" y="210" width="140" height="60" as="geometry" />
        </mxCell>
        <mxCell id="Gm08zl15T1QvJcRxXQye-58" value="НАЗВАНИЕ" style="text;strokeColor=none;fillColor=none;align=left;verticalAlign=middle;spacingLeft=4;spacingRight=4;overflow=hidden;points=[[0,0.5],[1,0.5]];portConstraint=eastwest;rotatable=0;whiteSpace=wrap;html=1;" vertex="1" parent="Gm08zl15T1QvJcRxXQye-57">
          <mxGeometry y="30" width="140" height="30" as="geometry" />
        </mxCell>
        <mxCell id="Gm08zl15T1QvJcRxXQye-62" value="ВОПРОС" style="swimlane;fontStyle=0;childLayout=stackLayout;horizontal=1;startSize=30;horizontalStack=0;resizeParent=1;resizeParentMax=0;resizeLast=0;collapsible=1;marginBottom=0;whiteSpace=wrap;html=1;" vertex="1" parent="1">
          <mxGeometry x="355" y="195" width="140" height="90" as="geometry" />
        </mxCell>
        <mxCell id="Gm08zl15T1QvJcRxXQye-68" value="ТЕКСТ" style="text;strokeColor=none;fillColor=none;align=left;verticalAlign=middle;spacingLeft=4;spacingRight=4;overflow=hidden;points=[[0,0.5],[1,0.5]];portConstraint=eastwest;rotatable=0;whiteSpace=wrap;html=1;" vertex="1" parent="Gm08zl15T1QvJcRxXQye-62">
          <mxGeometry y="30" width="140" height="30" as="geometry" />
        </mxCell>
        <mxCell id="Gm08zl15T1QvJcRxXQye-71" value="ТИП" style="text;strokeColor=none;fillColor=none;align=left;verticalAlign=middle;spacingLeft=4;spacingRight=4;overflow=hidden;points=[[0,0.5],[1,0.5]];portConstraint=eastwest;rotatable=0;whiteSpace=wrap;html=1;" vertex="1" parent="Gm08zl15T1QvJcRxXQye-62">
          <mxGeometry y="60" width="140" height="30" as="geometry" />
        </mxCell>
        <mxCell id="Gm08zl15T1QvJcRxXQye-73" value="ОТВЕТ" style="swimlane;fontStyle=0;childLayout=stackLayout;horizontal=1;startSize=30;horizontalStack=0;resizeParent=1;resizeParentMax=0;resizeLast=0;collapsible=1;marginBottom=0;whiteSpace=wrap;html=1;" vertex="1" parent="1">
          <mxGeometry x="355" y="-100" width="140" height="90" as="geometry" />
        </mxCell>
        <mxCell id="Gm08zl15T1QvJcRxXQye-74" value="ТЕКСТ" style="text;strokeColor=none;fillColor=none;align=left;verticalAlign=middle;spacingLeft=4;spacingRight=4;overflow=hidden;points=[[0,0.5],[1,0.5]];portConstraint=eastwest;rotatable=0;whiteSpace=wrap;html=1;" vertex="1" parent="Gm08zl15T1QvJcRxXQye-73">
          <mxGeometry y="30" width="140" height="30" as="geometry" />
        </mxCell>
        <mxCell id="Gm08zl15T1QvJcRxXQye-75" value="КОРРЕКТНОСТЬ" style="text;strokeColor=none;fillColor=none;align=left;verticalAlign=middle;spacingLeft=4;spacingRight=4;overflow=hidden;points=[[0,0.5],[1,0.5]];portConstraint=eastwest;rotatable=0;whiteSpace=wrap;html=1;" vertex="1" parent="Gm08zl15T1QvJcRxXQye-73">
          <mxGeometry y="60" width="140" height="30" as="geometry" />
        </mxCell>
        <mxCell id="Gm08zl15T1QvJcRxXQye-76" value="КАРТИНКА" style="swimlane;fontStyle=0;childLayout=stackLayout;horizontal=1;startSize=30;horizontalStack=0;resizeParent=1;resizeParentMax=0;resizeLast=0;collapsible=1;marginBottom=0;whiteSpace=wrap;html=1;" vertex="1" parent="1">
          <mxGeometry x="650" y="-85" width="140" height="60" as="geometry" />
        </mxCell>
        <mxCell id="Gm08zl15T1QvJcRxXQye-77" value="ИМЯ ФАЙЛА" style="text;strokeColor=none;fillColor=none;align=left;verticalAlign=middle;spacingLeft=4;spacingRight=4;overflow=hidden;points=[[0,0.5],[1,0.5]];portConstraint=eastwest;rotatable=0;whiteSpace=wrap;html=1;" vertex="1" parent="Gm08zl15T1QvJcRxXQye-76">
          <mxGeometry y="30" width="140" height="30" as="geometry" />
        </mxCell>
        <mxCell id="Gm08zl15T1QvJcRxXQye-89" value="содержание" style="rhombus;whiteSpace=wrap;html=1;" vertex="1" parent="1">
          <mxGeometry x="385" y="65" width="80" height="60" as="geometry" />
        </mxCell>
        <mxCell id="Gm08zl15T1QvJcRxXQye-90" value="содержание" style="rhombus;whiteSpace=wrap;html=1;" vertex="1" parent="1">
          <mxGeometry x="530" y="-85" width="80" height="60" as="geometry" />
        </mxCell>
        <mxCell id="Gm08zl15T1QvJcRxXQye-91" value="соединение" style="rhombus;whiteSpace=wrap;html=1;" vertex="1" parent="1">
          <mxGeometry x="390" y="-270" width="80" height="60" as="geometry" />
        </mxCell>
        <mxCell id="Gm08zl15T1QvJcRxXQye-92" value="" style="endArrow=none;html=1;rounded=0;exitX=0.5;exitY=0;exitDx=0;exitDy=0;entryX=0.5;entryY=1;entryDx=0;entryDy=0;" edge="1" parent="1" source="Gm08zl15T1QvJcRxXQye-62" target="Gm08zl15T1QvJcRxXQye-89">
          <mxGeometry width="50" height="50" relative="1" as="geometry">
            <mxPoint x="470" y="160" as="sourcePoint" />
            <mxPoint x="520" y="110" as="targetPoint" />
          </mxGeometry>
        </mxCell>
        <mxCell id="Gm08zl15T1QvJcRxXQye-93" value="" style="endArrow=none;html=1;rounded=0;exitX=0.5;exitY=0;exitDx=0;exitDy=0;entryX=0.5;entryY=1.033;entryDx=0;entryDy=0;entryPerimeter=0;" edge="1" parent="1" source="Gm08zl15T1QvJcRxXQye-89" target="Gm08zl15T1QvJcRxXQye-75">
          <mxGeometry width="50" height="50" relative="1" as="geometry">
            <mxPoint x="530" y="100" as="sourcePoint" />
            <mxPoint x="580" y="50" as="targetPoint" />
          </mxGeometry>
        </mxCell>
        <mxCell id="Gm08zl15T1QvJcRxXQye-94" value="" style="endArrow=none;html=1;rounded=0;exitX=1;exitY=0.5;exitDx=0;exitDy=0;entryX=0;entryY=0.5;entryDx=0;entryDy=0;" edge="1" parent="1" source="Gm08zl15T1QvJcRxXQye-74" target="Gm08zl15T1QvJcRxXQye-90">
          <mxGeometry width="50" height="50" relative="1" as="geometry">
            <mxPoint x="560" y="-150" as="sourcePoint" />
            <mxPoint x="610" y="-200" as="targetPoint" />
          </mxGeometry>
        </mxCell>
        <mxCell id="Gm08zl15T1QvJcRxXQye-95" value="" style="endArrow=none;html=1;rounded=0;exitX=1;exitY=0.5;exitDx=0;exitDy=0;entryX=0;entryY=0.5;entryDx=0;entryDy=0;" edge="1" parent="1" source="Gm08zl15T1QvJcRxXQye-90" target="Gm08zl15T1QvJcRxXQye-76">
          <mxGeometry width="50" height="50" relative="1" as="geometry">
            <mxPoint x="650" y="80" as="sourcePoint" />
            <mxPoint x="700" y="30" as="targetPoint" />
          </mxGeometry>
        </mxCell>
        <mxCell id="Gm08zl15T1QvJcRxXQye-99" value="" style="endArrow=none;html=1;rounded=0;exitX=1;exitY=0.5;exitDx=0;exitDy=0;entryX=1;entryY=0;entryDx=0;entryDy=0;" edge="1" parent="1" source="Gm08zl15T1QvJcRxXQye-91" target="Gm08zl15T1QvJcRxXQye-73">
          <mxGeometry width="50" height="50" relative="1" as="geometry">
            <mxPoint x="510" y="-180" as="sourcePoint" />
            <mxPoint x="560" y="-230" as="targetPoint" />
            <Array as="points">
              <mxPoint x="495" y="-240" />
            </Array>
          </mxGeometry>
        </mxCell>
        <mxCell id="Gm08zl15T1QvJcRxXQye-101" value="" style="endArrow=none;html=1;rounded=0;exitX=0;exitY=0;exitDx=0;exitDy=0;entryX=0;entryY=0.5;entryDx=0;entryDy=0;" edge="1" parent="1" source="Gm08zl15T1QvJcRxXQye-73" target="Gm08zl15T1QvJcRxXQye-91">
          <mxGeometry width="50" height="50" relative="1" as="geometry">
            <mxPoint x="190" y="-150" as="sourcePoint" />
            <mxPoint x="240" y="-200" as="targetPoint" />
            <Array as="points">
              <mxPoint x="355" y="-240" />
            </Array>
          </mxGeometry>
        </mxCell>
        <mxCell id="Gm08zl15T1QvJcRxXQye-102" value="1" style="text;html=1;align=center;verticalAlign=middle;resizable=0;points=[];autosize=1;strokeColor=none;fillColor=none;" vertex="1" parent="1">
          <mxGeometry x="355" y="-130" width="30" height="30" as="geometry" />
        </mxCell>
        <mxCell id="Gm08zl15T1QvJcRxXQye-103" value="1" style="text;html=1;align=center;verticalAlign=middle;resizable=0;points=[];autosize=1;strokeColor=none;fillColor=none;" vertex="1" parent="1">
          <mxGeometry x="495" y="-130" width="30" height="30" as="geometry" />
        </mxCell>
        <mxCell id="Gm08zl15T1QvJcRxXQye-104" value="1" style="text;html=1;align=center;verticalAlign=middle;resizable=0;points=[];autosize=1;strokeColor=none;fillColor=none;" vertex="1" parent="1">
          <mxGeometry x="495" y="-85" width="30" height="30" as="geometry" />
        </mxCell>
        <mxCell id="Gm08zl15T1QvJcRxXQye-105" value="1" style="text;html=1;align=center;verticalAlign=middle;resizable=0;points=[];autosize=1;strokeColor=none;fillColor=none;" vertex="1" parent="1">
          <mxGeometry x="615" y="-85" width="30" height="30" as="geometry" />
        </mxCell>
        <mxCell id="Gm08zl15T1QvJcRxXQye-106" value="n" style="text;html=1;align=center;verticalAlign=middle;resizable=0;points=[];autosize=1;strokeColor=none;fillColor=none;" vertex="1" parent="1">
          <mxGeometry x="425" y="-5" width="30" height="30" as="geometry" />
        </mxCell>
        <mxCell id="Gm08zl15T1QvJcRxXQye-107" value="1" style="text;html=1;align=center;verticalAlign=middle;resizable=0;points=[];autosize=1;strokeColor=none;fillColor=none;" vertex="1" parent="1">
          <mxGeometry x="425" y="165" width="30" height="30" as="geometry" />
        </mxCell>
        <mxCell id="Gm08zl15T1QvJcRxXQye-108" value="ПЛАН" style="swimlane;fontStyle=0;childLayout=stackLayout;horizontal=1;startSize=30;horizontalStack=0;resizeParent=1;resizeParentMax=0;resizeLast=0;collapsible=1;marginBottom=0;whiteSpace=wrap;html=1;" vertex="1" parent="1">
          <mxGeometry x="70" y="400" width="140" height="120" as="geometry">
            <mxRectangle x="75" y="-40" width="130" height="30" as="alternateBounds" />
          </mxGeometry>
        </mxCell>
        <mxCell id="Gm08zl15T1QvJcRxXQye-109" value="ИМЯ" style="text;strokeColor=none;fillColor=none;align=left;verticalAlign=middle;spacingLeft=4;spacingRight=4;overflow=hidden;points=[[0,0.5],[1,0.5]];portConstraint=eastwest;rotatable=0;whiteSpace=wrap;html=1;" vertex="1" parent="Gm08zl15T1QvJcRxXQye-108">
          <mxGeometry y="30" width="140" height="30" as="geometry" />
        </mxCell>
        <mxCell id="Gm08zl15T1QvJcRxXQye-112" value="ДАТА НАЧАЛА" style="text;strokeColor=none;fillColor=none;align=left;verticalAlign=middle;spacingLeft=4;spacingRight=4;overflow=hidden;points=[[0,0.5],[1,0.5]];portConstraint=eastwest;rotatable=0;whiteSpace=wrap;html=1;" vertex="1" parent="Gm08zl15T1QvJcRxXQye-108">
          <mxGeometry y="60" width="140" height="30" as="geometry" />
        </mxCell>
        <mxCell id="Gm08zl15T1QvJcRxXQye-111" value="ДАТА ОКОНЧАНИЯ" style="text;strokeColor=none;fillColor=none;align=left;verticalAlign=middle;spacingLeft=4;spacingRight=4;overflow=hidden;points=[[0,0.5],[1,0.5]];portConstraint=eastwest;rotatable=0;whiteSpace=wrap;html=1;" vertex="1" parent="Gm08zl15T1QvJcRxXQye-108">
          <mxGeometry y="90" width="140" height="30" as="geometry" />
        </mxCell>
        <mxCell id="Gm08zl15T1QvJcRxXQye-113" value="ПОЛЬЗОВАТЕЛЬ" style="swimlane;fontStyle=0;childLayout=stackLayout;horizontal=1;startSize=30;horizontalStack=0;resizeParent=1;resizeParentMax=0;resizeLast=0;collapsible=1;marginBottom=0;whiteSpace=wrap;html=1;" vertex="1" parent="1">
          <mxGeometry x="390" y="355" width="140" height="210" as="geometry">
            <mxRectangle x="75" y="-40" width="130" height="30" as="alternateBounds" />
          </mxGeometry>
        </mxCell>
        <mxCell id="Gm08zl15T1QvJcRxXQye-114" value="ИМЯ" style="text;strokeColor=none;fillColor=none;align=left;verticalAlign=middle;spacingLeft=4;spacingRight=4;overflow=hidden;points=[[0,0.5],[1,0.5]];portConstraint=eastwest;rotatable=0;whiteSpace=wrap;html=1;" vertex="1" parent="Gm08zl15T1QvJcRxXQye-113">
          <mxGeometry y="30" width="140" height="30" as="geometry" />
        </mxCell>
        <mxCell id="Gm08zl15T1QvJcRxXQye-115" value="ФАМИЛИЯ" style="text;strokeColor=none;fillColor=none;align=left;verticalAlign=middle;spacingLeft=4;spacingRight=4;overflow=hidden;points=[[0,0.5],[1,0.5]];portConstraint=eastwest;rotatable=0;whiteSpace=wrap;html=1;" vertex="1" parent="Gm08zl15T1QvJcRxXQye-113">
          <mxGeometry y="60" width="140" height="30" as="geometry" />
        </mxCell>
        <mxCell id="Gm08zl15T1QvJcRxXQye-118" value="ОТЧЕСТВО" style="text;strokeColor=none;fillColor=none;align=left;verticalAlign=middle;spacingLeft=4;spacingRight=4;overflow=hidden;points=[[0,0.5],[1,0.5]];portConstraint=eastwest;rotatable=0;whiteSpace=wrap;html=1;" vertex="1" parent="Gm08zl15T1QvJcRxXQye-113">
          <mxGeometry y="90" width="140" height="30" as="geometry" />
        </mxCell>
        <mxCell id="Gm08zl15T1QvJcRxXQye-119" value="ЛОГИН" style="text;strokeColor=none;fillColor=none;align=left;verticalAlign=middle;spacingLeft=4;spacingRight=4;overflow=hidden;points=[[0,0.5],[1,0.5]];portConstraint=eastwest;rotatable=0;whiteSpace=wrap;html=1;" vertex="1" parent="Gm08zl15T1QvJcRxXQye-113">
          <mxGeometry y="120" width="140" height="30" as="geometry" />
        </mxCell>
        <mxCell id="Gm08zl15T1QvJcRxXQye-116" value="ПАРОЛЬ" style="text;strokeColor=none;fillColor=none;align=left;verticalAlign=middle;spacingLeft=4;spacingRight=4;overflow=hidden;points=[[0,0.5],[1,0.5]];portConstraint=eastwest;rotatable=0;whiteSpace=wrap;html=1;" vertex="1" parent="Gm08zl15T1QvJcRxXQye-113">
          <mxGeometry y="150" width="140" height="30" as="geometry" />
        </mxCell>
        <mxCell id="Gm08zl15T1QvJcRxXQye-120" value="ТИП" style="text;strokeColor=none;fillColor=none;align=left;verticalAlign=middle;spacingLeft=4;spacingRight=4;overflow=hidden;points=[[0,0.5],[1,0.5]];portConstraint=eastwest;rotatable=0;whiteSpace=wrap;html=1;" vertex="1" parent="Gm08zl15T1QvJcRxXQye-113">
          <mxGeometry y="180" width="140" height="30" as="geometry" />
        </mxCell>
        <mxCell id="Gm08zl15T1QvJcRxXQye-121" value="ГРУППА" style="swimlane;fontStyle=0;childLayout=stackLayout;horizontal=1;startSize=30;horizontalStack=0;resizeParent=1;resizeParentMax=0;resizeLast=0;collapsible=1;marginBottom=0;whiteSpace=wrap;html=1;" vertex="1" parent="1">
          <mxGeometry x="220" y="630" width="140" height="60" as="geometry">
            <mxRectangle x="75" y="-40" width="130" height="30" as="alternateBounds" />
          </mxGeometry>
        </mxCell>
        <mxCell id="Gm08zl15T1QvJcRxXQye-122" value="КОД" style="text;strokeColor=none;fillColor=none;align=left;verticalAlign=middle;spacingLeft=4;spacingRight=4;overflow=hidden;points=[[0,0.5],[1,0.5]];portConstraint=eastwest;rotatable=0;whiteSpace=wrap;html=1;" vertex="1" parent="Gm08zl15T1QvJcRxXQye-121">
          <mxGeometry y="30" width="140" height="30" as="geometry" />
        </mxCell>
        <mxCell id="Gm08zl15T1QvJcRxXQye-128" value="участие" style="rhombus;whiteSpace=wrap;html=1;" vertex="1" parent="1">
          <mxGeometry x="100" y="630" width="80" height="60" as="geometry" />
        </mxCell>
        <mxCell id="Gm08zl15T1QvJcRxXQye-129" value="принад-ть" style="rhombus;whiteSpace=wrap;html=1;" vertex="1" parent="1">
          <mxGeometry x="420" y="630" width="80" height="60" as="geometry" />
        </mxCell>
        <mxCell id="Gm08zl15T1QvJcRxXQye-130" value="" style="endArrow=none;html=1;rounded=0;exitX=0.5;exitY=1.133;exitDx=0;exitDy=0;exitPerimeter=0;entryX=0.5;entryY=0;entryDx=0;entryDy=0;" edge="1" parent="1" source="Gm08zl15T1QvJcRxXQye-111" target="Gm08zl15T1QvJcRxXQye-128">
          <mxGeometry width="50" height="50" relative="1" as="geometry">
            <mxPoint x="530" y="800" as="sourcePoint" />
            <mxPoint x="580" y="750" as="targetPoint" />
          </mxGeometry>
        </mxCell>
        <mxCell id="Gm08zl15T1QvJcRxXQye-131" value="" style="endArrow=none;html=1;rounded=0;exitX=1;exitY=0.5;exitDx=0;exitDy=0;entryX=-0.007;entryY=-0.033;entryDx=0;entryDy=0;entryPerimeter=0;" edge="1" parent="1" source="Gm08zl15T1QvJcRxXQye-128" target="Gm08zl15T1QvJcRxXQye-122">
          <mxGeometry width="50" height="50" relative="1" as="geometry">
            <mxPoint x="310" y="840" as="sourcePoint" />
            <mxPoint x="360" y="790" as="targetPoint" />
          </mxGeometry>
        </mxCell>
        <mxCell id="Gm08zl15T1QvJcRxXQye-132" value="n" style="text;html=1;align=center;verticalAlign=middle;resizable=0;points=[];autosize=1;strokeColor=none;fillColor=none;" vertex="1" parent="1">
          <mxGeometry x="145" y="525" width="30" height="30" as="geometry" />
        </mxCell>
        <mxCell id="Gm08zl15T1QvJcRxXQye-133" value="n" style="text;html=1;align=center;verticalAlign=middle;resizable=0;points=[];autosize=1;strokeColor=none;fillColor=none;" vertex="1" parent="1">
          <mxGeometry x="185" y="625" width="30" height="30" as="geometry" />
        </mxCell>
        <mxCell id="Gm08zl15T1QvJcRxXQye-134" value="" style="endArrow=none;html=1;rounded=0;exitX=0.5;exitY=1.1;exitDx=0;exitDy=0;exitPerimeter=0;entryX=0.5;entryY=0;entryDx=0;entryDy=0;" edge="1" parent="1" source="Gm08zl15T1QvJcRxXQye-120" target="Gm08zl15T1QvJcRxXQye-129">
          <mxGeometry width="50" height="50" relative="1" as="geometry">
            <mxPoint x="450" y="750" as="sourcePoint" />
            <mxPoint x="500" y="700" as="targetPoint" />
          </mxGeometry>
        </mxCell>
        <mxCell id="Gm08zl15T1QvJcRxXQye-135" value="" style="endArrow=none;html=1;rounded=0;exitX=1;exitY=0.5;exitDx=0;exitDy=0;entryX=0;entryY=0.5;entryDx=0;entryDy=0;" edge="1" parent="1" source="Gm08zl15T1QvJcRxXQye-121" target="Gm08zl15T1QvJcRxXQye-129">
          <mxGeometry width="50" height="50" relative="1" as="geometry">
            <mxPoint x="400" y="780" as="sourcePoint" />
            <mxPoint x="450" y="730" as="targetPoint" />
          </mxGeometry>
        </mxCell>
        <mxCell id="Gm08zl15T1QvJcRxXQye-136" value="n" style="text;html=1;align=center;verticalAlign=middle;resizable=0;points=[];autosize=1;strokeColor=none;fillColor=none;" vertex="1" parent="1">
          <mxGeometry x="457" y="565" width="30" height="30" as="geometry" />
        </mxCell>
        <mxCell id="Gm08zl15T1QvJcRxXQye-137" value="1" style="text;html=1;align=center;verticalAlign=middle;resizable=0;points=[];autosize=1;strokeColor=none;fillColor=none;" vertex="1" parent="1">
          <mxGeometry x="360" y="630" width="30" height="30" as="geometry" />
        </mxCell>
        <mxCell id="Gm08zl15T1QvJcRxXQye-138" value="РЕЗУЛЬТАТ" style="swimlane;fontStyle=0;childLayout=stackLayout;horizontal=1;startSize=30;horizontalStack=0;resizeParent=1;resizeParentMax=0;resizeLast=0;collapsible=1;marginBottom=0;whiteSpace=wrap;html=1;" vertex="1" parent="1">
          <mxGeometry x="755" y="340" width="140" height="90" as="geometry">
            <mxRectangle x="75" y="-40" width="130" height="30" as="alternateBounds" />
          </mxGeometry>
        </mxCell>
        <mxCell id="Gm08zl15T1QvJcRxXQye-143" value="ДАТА" style="text;strokeColor=none;fillColor=none;align=left;verticalAlign=middle;spacingLeft=4;spacingRight=4;overflow=hidden;points=[[0,0.5],[1,0.5]];portConstraint=eastwest;rotatable=0;whiteSpace=wrap;html=1;" vertex="1" parent="Gm08zl15T1QvJcRxXQye-138">
          <mxGeometry y="30" width="140" height="30" as="geometry" />
        </mxCell>
        <mxCell id="Gm08zl15T1QvJcRxXQye-144" value="ОЦЕНКА" style="text;strokeColor=none;fillColor=none;align=left;verticalAlign=middle;spacingLeft=4;spacingRight=4;overflow=hidden;points=[[0,0.5],[1,0.5]];portConstraint=eastwest;rotatable=0;whiteSpace=wrap;html=1;" vertex="1" parent="Gm08zl15T1QvJcRxXQye-138">
          <mxGeometry y="60" width="140" height="30" as="geometry" />
        </mxCell>
        <mxCell id="Gm08zl15T1QvJcRxXQye-145" value="ОТВЕТ" style="swimlane;fontStyle=0;childLayout=stackLayout;horizontal=1;startSize=30;horizontalStack=0;resizeParent=1;resizeParentMax=0;resizeLast=0;collapsible=1;marginBottom=0;whiteSpace=wrap;html=1;" vertex="1" parent="1">
          <mxGeometry x="756" y="135" width="140" height="60" as="geometry" />
        </mxCell>
        <mxCell id="Gm08zl15T1QvJcRxXQye-147" value="ОТВЕТ(?)" style="text;strokeColor=none;fillColor=none;align=left;verticalAlign=middle;spacingLeft=4;spacingRight=4;overflow=hidden;points=[[0,0.5],[1,0.5]];portConstraint=eastwest;rotatable=0;whiteSpace=wrap;html=1;" vertex="1" parent="Gm08zl15T1QvJcRxXQye-145">
          <mxGeometry y="30" width="140" height="30" as="geometry" />
        </mxCell>
        <mxCell id="Gm08zl15T1QvJcRxXQye-148" value="" style="endArrow=none;html=1;rounded=0;exitX=1;exitY=0;exitDx=0;exitDy=0;entryX=0;entryY=0.5;entryDx=0;entryDy=0;" edge="1" parent="1" source="Gm08zl15T1QvJcRxXQye-108" target="Gm08zl15T1QvJcRxXQye-49">
          <mxGeometry width="50" height="50" relative="1" as="geometry">
            <mxPoint x="740" y="510" as="sourcePoint" />
            <mxPoint x="560" y="320" as="targetPoint" />
            <Array as="points">
              <mxPoint x="210" y="320" />
            </Array>
          </mxGeometry>
        </mxCell>
        <mxCell id="Gm08zl15T1QvJcRxXQye-150" value="" style="endArrow=none;html=1;rounded=0;exitX=1;exitY=0.5;exitDx=0;exitDy=0;entryX=-0.014;entryY=0.3;entryDx=0;entryDy=0;entryPerimeter=0;" edge="1" parent="1" source="Gm08zl15T1QvJcRxXQye-49" target="Gm08zl15T1QvJcRxXQye-143">
          <mxGeometry width="50" height="50" relative="1" as="geometry">
            <mxPoint x="720" y="510" as="sourcePoint" />
            <mxPoint x="770" y="460" as="targetPoint" />
            <Array as="points">
              <mxPoint x="720" y="320" />
              <mxPoint x="720" y="379" />
            </Array>
          </mxGeometry>
        </mxCell>
        <mxCell id="Gm08zl15T1QvJcRxXQye-151" value="1" style="text;html=1;align=center;verticalAlign=middle;resizable=0;points=[];autosize=1;strokeColor=none;fillColor=none;" vertex="1" parent="1">
          <mxGeometry x="210" y="370" width="30" height="30" as="geometry" />
        </mxCell>
        <mxCell id="Gm08zl15T1QvJcRxXQye-152" value="n" style="text;html=1;align=center;verticalAlign=middle;resizable=0;points=[];autosize=1;strokeColor=none;fillColor=none;" vertex="1" parent="1">
          <mxGeometry x="720" y="350" width="30" height="30" as="geometry" />
        </mxCell>
        <mxCell id="Gm08zl15T1QvJcRxXQye-154" value="принад-ть" style="rhombus;whiteSpace=wrap;html=1;" vertex="1" parent="1">
          <mxGeometry x="600" y="419" width="80" height="60" as="geometry" />
        </mxCell>
        <mxCell id="Gm08zl15T1QvJcRxXQye-155" value="" style="endArrow=none;html=1;rounded=0;exitX=0;exitY=0.5;exitDx=0;exitDy=0;entryX=1.006;entryY=0.189;entryDx=0;entryDy=0;entryPerimeter=0;" edge="1" parent="1" source="Gm08zl15T1QvJcRxXQye-154" target="Gm08zl15T1QvJcRxXQye-118">
          <mxGeometry width="50" height="50" relative="1" as="geometry">
            <mxPoint x="680" y="560" as="sourcePoint" />
            <mxPoint x="540" y="470" as="targetPoint" />
          </mxGeometry>
        </mxCell>
        <mxCell id="Gm08zl15T1QvJcRxXQye-156" value="" style="endArrow=none;html=1;rounded=0;exitX=1;exitY=0.5;exitDx=0;exitDy=0;entryX=0.499;entryY=1.038;entryDx=0;entryDy=0;entryPerimeter=0;" edge="1" parent="1" source="Gm08zl15T1QvJcRxXQye-154" target="Gm08zl15T1QvJcRxXQye-144">
          <mxGeometry width="50" height="50" relative="1" as="geometry">
            <mxPoint x="750" y="490" as="sourcePoint" />
            <mxPoint x="800" y="440" as="targetPoint" />
            <Array as="points">
              <mxPoint x="825" y="450" />
            </Array>
          </mxGeometry>
        </mxCell>
        <mxCell id="Gm08zl15T1QvJcRxXQye-157" value="1" style="text;html=1;align=center;verticalAlign=middle;resizable=0;points=[];autosize=1;strokeColor=none;fillColor=none;" vertex="1" parent="1">
          <mxGeometry x="530" y="419" width="30" height="30" as="geometry" />
        </mxCell>
        <mxCell id="Gm08zl15T1QvJcRxXQye-158" value="n" style="text;html=1;align=center;verticalAlign=middle;resizable=0;points=[];autosize=1;strokeColor=none;fillColor=none;" vertex="1" parent="1">
          <mxGeometry x="820" y="430" width="30" height="30" as="geometry" />
        </mxCell>
        <mxCell id="Gm08zl15T1QvJcRxXQye-159" value="" style="endArrow=none;html=1;rounded=0;exitX=1;exitY=0.5;exitDx=0;exitDy=0;entryX=0;entryY=0.5;entryDx=0;entryDy=0;" edge="1" parent="1" source="Gm08zl15T1QvJcRxXQye-68" target="Gm08zl15T1QvJcRxXQye-44">
          <mxGeometry width="50" height="50" relative="1" as="geometry">
            <mxPoint x="610" y="200" as="sourcePoint" />
            <mxPoint x="640" y="160" as="targetPoint" />
            <Array as="points">
              <mxPoint x="560" y="240" />
              <mxPoint x="560" y="160" />
            </Array>
          </mxGeometry>
        </mxCell>
        <mxCell id="Gm08zl15T1QvJcRxXQye-160" value="" style="endArrow=none;html=1;rounded=0;exitX=1;exitY=0.5;exitDx=0;exitDy=0;entryX=-0.007;entryY=-0.1;entryDx=0;entryDy=0;entryPerimeter=0;" edge="1" parent="1" source="Gm08zl15T1QvJcRxXQye-44" target="Gm08zl15T1QvJcRxXQye-147">
          <mxGeometry width="50" height="50" relative="1" as="geometry">
            <mxPoint x="690" y="250" as="sourcePoint" />
            <mxPoint x="740" y="200" as="targetPoint" />
          </mxGeometry>
        </mxCell>
        <mxCell id="Gm08zl15T1QvJcRxXQye-161" value="принад-ть" style="rhombus;whiteSpace=wrap;html=1;" vertex="1" parent="1">
          <mxGeometry x="786" y="240" width="80" height="60" as="geometry" />
        </mxCell>
        <mxCell id="Gm08zl15T1QvJcRxXQye-163" value="" style="endArrow=none;html=1;rounded=0;exitX=0.5;exitY=0;exitDx=0;exitDy=0;entryX=0.5;entryY=1.1;entryDx=0;entryDy=0;entryPerimeter=0;" edge="1" parent="1" source="Gm08zl15T1QvJcRxXQye-161" target="Gm08zl15T1QvJcRxXQye-147">
          <mxGeometry width="50" height="50" relative="1" as="geometry">
            <mxPoint x="980" y="290" as="sourcePoint" />
            <mxPoint x="1030" y="240" as="targetPoint" />
          </mxGeometry>
        </mxCell>
        <mxCell id="Gm08zl15T1QvJcRxXQye-164" value="" style="endArrow=none;html=1;rounded=0;entryX=0.5;entryY=1;entryDx=0;entryDy=0;exitX=0.5;exitY=0;exitDx=0;exitDy=0;" edge="1" parent="1" source="Gm08zl15T1QvJcRxXQye-138" target="Gm08zl15T1QvJcRxXQye-161">
          <mxGeometry width="50" height="50" relative="1" as="geometry">
            <mxPoint x="820" y="340" as="sourcePoint" />
            <mxPoint x="1030" y="320" as="targetPoint" />
          </mxGeometry>
        </mxCell>
        <mxCell id="Gm08zl15T1QvJcRxXQye-165" value="n" style="text;html=1;align=center;verticalAlign=middle;resizable=0;points=[];autosize=1;strokeColor=none;fillColor=none;" vertex="1" parent="1">
          <mxGeometry x="827" y="195" width="30" height="30" as="geometry" />
        </mxCell>
        <mxCell id="Gm08zl15T1QvJcRxXQye-166" value="1" style="text;html=1;align=center;verticalAlign=middle;resizable=0;points=[];autosize=1;strokeColor=none;fillColor=none;" vertex="1" parent="1">
          <mxGeometry x="827" y="310" width="30" height="30" as="geometry" />
        </mxCell>
        <mxCell id="Gm08zl15T1QvJcRxXQye-167" value="1" style="text;html=1;align=center;verticalAlign=middle;resizable=0;points=[];autosize=1;strokeColor=none;fillColor=none;" vertex="1" parent="1">
          <mxGeometry x="725" y="135" width="30" height="30" as="geometry" />
        </mxCell>
        <mxCell id="Gm08zl15T1QvJcRxXQye-168" value="1" style="text;html=1;align=center;verticalAlign=middle;resizable=0;points=[];autosize=1;strokeColor=none;fillColor=none;" vertex="1" parent="1">
          <mxGeometry x="495" y="210" width="30" height="30" as="geometry" />
        </mxCell>
        <mxCell id="Gm08zl15T1QvJcRxXQye-169" value="ПРЕДМЕТ" style="swimlane;fontStyle=0;childLayout=stackLayout;horizontal=1;startSize=30;horizontalStack=0;resizeParent=1;resizeParentMax=0;resizeLast=0;collapsible=1;marginBottom=0;whiteSpace=wrap;html=1;" vertex="1" parent="1">
          <mxGeometry x="-140" y="210" width="140" height="60" as="geometry">
            <mxRectangle x="75" y="-40" width="130" height="30" as="alternateBounds" />
          </mxGeometry>
        </mxCell>
        <mxCell id="Gm08zl15T1QvJcRxXQye-170" value="НАЗВАНИЕ" style="text;strokeColor=none;fillColor=none;align=left;verticalAlign=middle;spacingLeft=4;spacingRight=4;overflow=hidden;points=[[0,0.5],[1,0.5]];portConstraint=eastwest;rotatable=0;whiteSpace=wrap;html=1;" vertex="1" parent="Gm08zl15T1QvJcRxXQye-169">
          <mxGeometry y="30" width="140" height="30" as="geometry" />
        </mxCell>
        <mxCell id="Gm08zl15T1QvJcRxXQye-173" value="" style="endArrow=none;html=1;rounded=0;entryX=0.849;entryY=1.039;entryDx=0;entryDy=0;entryPerimeter=0;" edge="1" parent="1" target="Gm08zl15T1QvJcRxXQye-120">
          <mxGeometry width="50" height="50" relative="1" as="geometry">
            <mxPoint x="-70" y="510" as="sourcePoint" />
            <mxPoint x="340" y="750" as="targetPoint" />
            <Array as="points">
              <mxPoint x="-70" y="760" />
              <mxPoint x="509" y="760" />
            </Array>
          </mxGeometry>
        </mxCell>
        <mxCell id="Gm08zl15T1QvJcRxXQye-174" value="обучение" style="rhombus;whiteSpace=wrap;html=1;" vertex="1" parent="1">
          <mxGeometry x="-110" y="449" width="80" height="60" as="geometry" />
        </mxCell>
        <mxCell id="Gm08zl15T1QvJcRxXQye-175" value="" style="endArrow=none;html=1;rounded=0;exitX=0.5;exitY=0;exitDx=0;exitDy=0;entryX=0.498;entryY=0.983;entryDx=0;entryDy=0;entryPerimeter=0;" edge="1" parent="1" source="Gm08zl15T1QvJcRxXQye-174" target="Gm08zl15T1QvJcRxXQye-170">
          <mxGeometry width="50" height="50" relative="1" as="geometry">
            <mxPoint x="-70" y="360" as="sourcePoint" />
            <mxPoint x="-20" y="310" as="targetPoint" />
          </mxGeometry>
        </mxCell>
        <mxCell id="Gm08zl15T1QvJcRxXQye-176" value="n" style="text;html=1;align=center;verticalAlign=middle;resizable=0;points=[];autosize=1;strokeColor=none;fillColor=none;" vertex="1" parent="1">
          <mxGeometry x="-75" y="265" width="30" height="30" as="geometry" />
        </mxCell>
        <mxCell id="Gm08zl15T1QvJcRxXQye-177" value="n" style="text;html=1;align=center;verticalAlign=middle;resizable=0;points=[];autosize=1;strokeColor=none;fillColor=none;" vertex="1" parent="1">
          <mxGeometry x="505" y="565" width="30" height="30" as="geometry" />
        </mxCell>
        <mxCell id="Gm08zl15T1QvJcRxXQye-178" value="" style="endArrow=none;html=1;rounded=0;exitX=0.5;exitY=0;exitDx=0;exitDy=0;" edge="1" parent="1" source="Gm08zl15T1QvJcRxXQye-169">
          <mxGeometry width="50" height="50" relative="1" as="geometry">
            <mxPoint x="-90" y="110" as="sourcePoint" />
            <mxPoint x="-70" y="110" as="targetPoint" />
          </mxGeometry>
        </mxCell>
        <mxCell id="Gm08zl15T1QvJcRxXQye-179" value="содержание" style="rhombus;whiteSpace=wrap;html=1;" vertex="1" parent="1">
          <mxGeometry x="-110" y="50" width="80" height="60" as="geometry" />
        </mxCell>
        <mxCell id="Gm08zl15T1QvJcRxXQye-180" value="" style="endArrow=none;html=1;rounded=0;exitX=0.5;exitY=0;exitDx=0;exitDy=0;entryX=-0.002;entryY=0.178;entryDx=0;entryDy=0;entryPerimeter=0;" edge="1" parent="1" source="Gm08zl15T1QvJcRxXQye-179" target="Gm08zl15T1QvJcRxXQye-55">
          <mxGeometry width="50" height="50" relative="1" as="geometry">
            <mxPoint x="-90" y="30" as="sourcePoint" />
            <mxPoint x="-40" y="-20" as="targetPoint" />
            <Array as="points">
              <mxPoint x="-70" y="25" />
            </Array>
          </mxGeometry>
        </mxCell>
        <mxCell id="Gm08zl15T1QvJcRxXQye-181" value="n" style="text;html=1;align=center;verticalAlign=middle;resizable=0;points=[];autosize=1;strokeColor=none;fillColor=none;" vertex="1" parent="1">
          <mxGeometry x="-75" y="180" width="30" height="30" as="geometry" />
        </mxCell>
        <mxCell id="Gm08zl15T1QvJcRxXQye-182" value="n" style="text;html=1;align=center;verticalAlign=middle;resizable=0;points=[];autosize=1;strokeColor=none;fillColor=none;" vertex="1" parent="1">
          <mxGeometry x="25" y="-5" width="30" height="30" as="geometry" />
        </mxCell>
      </root>
    </mxGraphModel>
  </diagram>
</mxfile>
